<?xml version="1.0" encoding="UTF-8" standalone="no"?><!DOCTYPE svg PUBLIC "-//W3C//DTD SVG 1.1//EN" "http://www.w3.org/Graphics/SVG/1.1/DTD/svg11.dtd"><svg width="100%" height="100%" viewBox="0 0 1088 960" version="1.1" xmlns="http://www.w3.org/2000/svg" xmlns:xlink="http://www.w3.org/1999/xlink" xml:space="preserve" xmlns:serif="http://www.serif.com/" style="fill-rule:evenodd;clip-rule:evenodd;stroke-linecap:round;stroke-linejoin:round;"><g><path d="M579.384,16.159c116.218,68.303 231.619,136.149 347.035,203.972c5.394,3.171 11.951,5.157 16.043,9.502c3.48,3.694 5.846,9.998 5.862,15.157c0.34,103.351 0.255,206.701 0.283,310.052c0.015,51.89 -0.14,103.78 0.355,155.664c0.084,8.836 -2.798,13.825 -10.23,18.208c-128.865,76.008 -257.647,152.167 -386.269,228.588c-6.592,3.916 -11.095,3.347 -17.233,-0.288c-129.07,-76.473 -258.198,-152.846 -387.518,-228.897c-8.394,-4.938 -8.68,-11.466 -8.675,-19.29c0.105,-132.697 0.146,-265.395 0.214,-398.092c0.01,-22.54 0.373,-45.089 -0.028,-67.621c-0.13,-7.353 2.423,-11.259 8.782,-14.986c123.578,-72.418 247.284,-144.625 370.145,-218.241c19.285,-11.555 34.532,-14.879 51.772,0.447c2.499,2.221 5.747,3.6 9.461,5.826Z" style="fill:#ef4444;fill-rule:nonzero;"/><path d="M579.384,16.159c116.218,68.303 231.619,136.149 347.035,203.972c5.394,3.171 11.951,5.157 16.043,9.502c3.48,3.694 5.846,9.998 5.862,15.157c0.34,103.351 0.255,206.701 0.283,310.052c0.015,51.89 -0.14,103.78 0.355,155.664c0.084,8.836 -2.798,13.825 -10.23,18.208c-128.865,76.008 -257.647,152.167 -386.269,228.588c-6.592,3.916 -11.095,3.347 -17.233,-0.288c-129.07,-76.473 -258.198,-152.846 -387.518,-228.897c-8.394,-4.938 -8.68,-11.466 -8.675,-19.29c0.105,-132.697 0.146,-265.395 0.214,-398.092c0.01,-22.54 0.373,-45.089 -0.028,-67.621c-0.13,-7.353 2.423,-11.259 8.782,-14.986c123.578,-72.418 247.284,-144.625 370.145,-218.241c19.285,-11.555 34.532,-14.879 51.772,0.447c2.499,2.221 5.747,3.6 9.461,5.826Z" style="fill:none;fill-rule:nonzero;stroke:#ef4444;stroke-width:21.45px;"/><path d="M619.808,450.335c36.099,20.955 71.252,41.678 106.708,61.869c7.148,4.069 10.235,8.611 10.179,17.021c-0.352,52.319 0.041,104.645 -0.585,156.959c-0.059,5.017 -4.187,12.045 -8.519,14.629c-39.462,23.521 -79.452,46.151 -119.149,69.278c-18.246,10.633 -36.373,21.501 -54.177,32.855c-7.713,4.917 -13.952,5.172 -22.055,0.411c-59.342,-34.859 -119.016,-69.153 -178.309,-104.091c-3.766,-2.221 -7.358,-8.338 -7.416,-12.691c-0.521,-37.848 -0.306,-75.712 -0.1,-113.57c0.061,-11.323 4.207,-14.054 14.246,-8.244c37.103,21.471 73.802,43.636 110.839,65.222c21.91,12.773 44.078,25.114 66.399,37.156c2.55,1.376 7.45,0.638 10.199,-0.952c20.238,-11.698 40.251,-23.786 60.243,-35.905c14.052,-8.517 13.49,-36.809 -0.825,-45.15c-83.021,-48.364 -165.966,-96.869 -249.211,-144.842c-9.306,-5.364 -12.814,-11.197 -12.686,-21.943c0.613,-51.89 0.544,-103.79 0.258,-155.685c-0.046,-8.193 2.234,-13.043 9.569,-17.294c59.579,-34.527 118.835,-69.618 178.468,-104.053c4.159,-2.402 11.813,-3.15 15.719,-0.932c53.833,30.559 106.797,62.684 161.12,92.319c18.249,9.954 25.155,21.044 23.825,41.66c-1.991,30.932 -0.7,62.074 -0.919,93.123c-0.11,15.596 -2.658,17.251 -15.921,9.589c-55.587,-32.112 -111.145,-64.272 -166.484,-96.805c-7.228,-4.251 -12.489,-4.212 -19.597,0.161c-18.458,11.358 -37.335,22.06 -56.342,32.482c-7.468,4.095 -9.423,9.163 -10.799,17.754c-3.896,24.292 7.059,35.931 27.623,46.684c43.138,22.558 84.67,48.196 127.701,72.985" style="fill:#0f172b;fill-rule:nonzero;stroke:#ef4444;stroke-width:21.45px;"/></g></svg>