<?xml version="1.0" encoding="UTF-8"?>
<svg viewBox="0 0 1088 960"
    xmlns="http://www.w3.org/2000/svg">

    <g transform="matrix(2.553003,0,0,2.553003,-792.237768,-726.41018)">

        <!-- Background inside hexagon -->
        <path
            d="M537.258,290.861C582.78,317.615 627.982,344.19 673.19,370.756C675.303,371.998 677.871,372.776 679.474,374.478C680.837,375.925 681.764,378.394 681.77,380.415C681.903,420.897 681.87,461.379 681.881,501.861C681.887,522.186 681.826,542.511 682.02,562.834C682.053,566.295 680.924,568.249 678.013,569.966C627.537,599.738 577.094,629.569 526.713,659.503C524.131,661.037 522.367,660.814 519.963,659.39C469.407,629.436 418.828,599.521 368.174,569.732C364.886,567.798 364.774,565.241 364.776,562.176C364.817,510.199 364.833,458.222 364.86,406.245C364.864,397.416 365.006,388.584 364.849,379.758C364.798,376.878 365.798,375.348 368.289,373.888C416.694,345.522 465.149,317.239 513.273,288.404C520.827,283.878 526.799,282.576 533.552,288.579C534.531,289.449 535.803,289.989 537.258,290.861Z"
            fill="#0f172a" />

        <!-- Hexagon stroke -->
        <path
            d="M537.258,290.861C582.78,317.615 627.982,344.19 673.19,370.756C675.303,371.998 677.871,372.776 679.474,374.478C680.837,375.925 681.764,378.394 681.77,380.415C681.903,420.897 681.87,461.379 681.881,501.861C681.887,522.186 681.826,542.511 682.02,562.834C682.053,566.295 680.924,568.249 678.013,569.966C627.537,599.738 577.094,629.569 526.713,659.503C524.131,661.037 522.367,660.814 519.963,659.39C469.407,629.436 418.828,599.521 368.174,569.732C364.886,567.798 364.774,565.241 364.776,562.176C364.817,510.199 364.833,458.222 364.86,406.245C364.864,397.416 365.006,388.584 364.849,379.758C364.798,376.878 365.798,375.348 368.289,373.888C416.694,345.522 465.149,317.239 513.273,288.404C520.827,283.878 526.799,282.576 533.552,288.579C534.531,289.449 535.803,289.989 537.258,290.861Z"
            fill="none"
            stroke="#ef4444"
            stroke-width="8.4"
            stroke-linejoin="round"
            stroke-linecap="round" />

        <!-- Inner S stroke -->
        <path
            d="M553.092,460.926C567.232,469.134 581.001,477.251 594.889,485.16C597.689,486.754 598.898,488.533 598.876,491.827C598.738,512.32 598.892,532.816 598.647,553.307C598.624,555.272 597.007,558.025 595.31,559.037C579.853,568.25 564.189,577.114 548.64,586.173C541.493,590.338 534.393,594.595 527.419,599.042C524.398,600.968 521.954,601.068 518.78,599.203C495.536,585.549 472.162,572.116 448.937,558.431C447.462,557.561 446.055,555.165 446.032,553.46C445.828,538.635 445.912,523.804 445.993,508.975C446.017,504.54 447.641,503.47 451.573,505.746C466.106,514.156 480.481,522.838 494.988,531.293C503.57,536.296 512.253,541.13 520.996,545.847C521.995,546.386 523.914,546.097 524.991,545.474C532.918,540.892 540.757,536.157 548.588,531.41C554.092,528.074 553.872,516.992 548.265,513.725C515.746,494.781 483.257,475.782 450.65,456.991C447.005,454.89 445.631,452.605 445.681,448.396C445.921,428.071 445.894,407.742 445.782,387.415C445.764,384.206 446.657,382.306 449.53,380.641C472.867,367.117 496.077,353.372 519.435,339.884C521.064,338.943 524.062,338.65 525.592,339.519C546.678,351.489 567.424,364.072 588.702,375.68C595.85,379.579 598.555,383.923 598.034,391.998C597.254,404.114 597.76,416.312 597.674,428.474C597.631,434.583 596.633,435.231 591.438,432.23C569.665,419.652 547.903,407.055 526.227,394.312C523.396,392.647 521.335,392.662 518.551,394.375C511.321,398.824 503.927,403.016 496.482,407.098C493.557,408.702 492.791,410.687 492.252,414.052C490.726,423.567 495.017,428.126 503.072,432.338C519.969,441.174 536.237,451.216 553.092,460.926"
            fill="none"
            stroke="#ef4444"
            stroke-width="8.4"
            stroke-linejoin="round"
            stroke-linecap="round" />

    </g>

</svg>
